<?xml version="1.0" encoding="utf-8"?>
<!-- Generator: Adobe Illustrator 24.0.0, SVG Export Plug-In . SVG Version: 6.00 Build 0)  -->
<svg version="1.1" id="Layer_1" xmlns="http://www.w3.org/2000/svg" xmlns:xlink="http://www.w3.org/1999/xlink" x="0px" y="0px"
	 viewBox="0 0 80.9 104.6" style="enable-background:new 0 0 80.9 104.6;" xml:space="preserve">
<style type="text/css">
	.st0{fill:#D41319;}
</style>
<g>
	<path class="st0" d="M10.6,43.9c-6,0-11,4.9-11,11s4.9,11,11,11s11-4.9,11-11S16.6,43.9,10.6,43.9 M10.6,59.8c-2.7,0-5-2.2-5-5
		c0-2.7,2.2-5,5-5s5,2.2,5,5C15.5,57.6,13.3,59.8,10.6,59.8"/>
	<path class="st0" d="M62.1,43.9c-6,0-11,4.9-11,11s4.9,11,11,11c6,0,11-4.9,11-11S68.1,43.9,62.1,43.9 M62.1,59.8c-2.7,0-5-2.2-5-5
		c0-2.7,2.2-5,5-5c2.7,0,5,2.2,5,5S64.8,59.8,62.1,59.8"/>
	<path class="st0" d="M31.4,57.8v-6.8L26.6,50h4.8h2.5H35v-6h-3.7v-3.7h-6.6V44h-3.7v6h3.7v9.4c0,3.6,2.9,6.5,6.5,6.5h4.6v-6h-2.4
		C32.3,59.8,31.4,58.9,31.4,57.8"/>
	<path class="st0" d="M46.8,57.8v-6.8L42,50h4.8h2.5h1.1v-6h-3.7v-3.7h-6.6V44h-3.7v6h3.7v9.4c0,3.6,2.9,6.5,6.5,6.5h4.6v-6h-2.4
		C47.7,59.8,46.8,58.9,46.8,57.8"/>
	<path class="st0" d="M77.3,59.7c-1.7,0-3.1,1.4-3.1,3.1c0,1.7,1.4,3.1,3.1,3.1c1.7,0,3.1-1.4,3.1-3.1C80.4,61.1,79,59.7,77.3,59.7"
		/>
</g>
</svg>
