<?xml version="1.0" encoding="utf-8"?>
<!-- Generator: Adobe Illustrator 24.0.0, SVG Export Plug-In . SVG Version: 6.00 Build 0)  -->
<svg version="1.1" id="logo" xmlns="http://www.w3.org/2000/svg" xmlns:xlink="http://www.w3.org/1999/xlink" x="0px" y="0px"
	 viewBox="0 0 277.6 49.2" style="enable-background:new 0 0 277.6 49.2;" xml:space="preserve">
<style type="text/css">
	.st0{fill:#D41319;}
</style>
<g>
	<path class="st0" d="M86.1,8.1c-10.8,0-19.7,8.8-19.7,19.7s8.8,19.7,19.7,19.7s19.7-8.8,19.7-19.7S96.9,8.1,86.1,8.1 M86.1,36.6
		c-4.8,0-8.9-3.9-8.9-8.9c0-4.8,3.9-8.9,8.9-8.9s8.9,3.9,8.9,8.9C94.8,32.6,90.9,36.6,86.1,36.6"/>
	<path class="st0" d="M178.4,8.1c-10.8,0-19.7,8.8-19.7,19.7s8.8,19.7,19.7,19.7c10.8,0,19.7-8.8,19.7-19.7S189.2,8.1,178.4,8.1
		 M178.4,36.6c-4.8,0-8.9-3.9-8.9-8.9c0-4.8,3.9-8.9,8.9-8.9c4.8,0,8.9,3.9,8.9,8.9S183.3,36.6,178.4,36.6"/>
	<path class="st0" d="M123.3,32.9V20.7l-8.6-1.6h8.6h4.5h2V8.2h-6.6V1.5h-11.8v6.7h-6.6v10.8h6.6V36c0,6.4,5.3,11.7,11.7,11.7h8.2
		V36.9h-4.2C124.9,36.6,123.3,35,123.3,32.9"/>
	<path class="st0" d="M150.9,32.9V20.7l-8.6-1.6h8.6h4.5h2V8.2h-6.6V1.5h-11.8v6.7h-6.6v10.8h6.6V36c0,6.4,5.3,11.7,11.7,11.7h8.2
		V36.9h-4.2C152.5,36.6,150.9,35,150.9,32.9"/>
	<path class="st0" d="M205.7,36.4c-3.1,0-5.5,2.5-5.5,5.5s2.5,5.5,5.5,5.5c3.1,0,5.5-2.5,5.5-5.5C211.2,38.9,208.7,36.4,205.7,36.4"
		/>
</g>
</svg>
