<?xml version="1.0" encoding="utf-8"?>
<!-- Generator: Adobe Illustrator 24.0.0, SVG Export Plug-In . SVG Version: 6.00 Build 0)  -->
<svg version="1.1" id="logo" xmlns="http://www.w3.org/2000/svg" xmlns:xlink="http://www.w3.org/1999/xlink" x="0px" y="0px"
	 viewBox="0 0 277.6 49.2" style="enable-background:new 0 0 277.6 49.2;" xml:space="preserve">
<style type="text/css">
	.st0{fill:#ffffff;}
</style>
<path class="st0" d="M87.3,8.9C76.7,8.9,68,17.5,68,28.3s8.6,19.3,19.3,19.3s19.3-8.6,19.3-19.3S97.9,8.9,87.3,8.9 M87.3,36.9
	c-4.7,0-8.7-3.9-8.7-8.7c0-4.7,3.9-8.7,8.7-8.7c4.9,0,8.7,3.9,8.7,8.7C95.9,33,92,36.9,87.3,36.9"/>
<path class="st0" d="M177.8,8.9c-10.6,0-19.3,8.6-19.3,19.3s8.6,19.3,19.3,19.3c10.6,0,19.3-8.6,19.3-19.3S188.4,8.9,177.8,8.9
	 M177.8,36.9c-4.7,0-8.7-3.9-8.7-8.7c0-4.7,3.9-8.7,8.7-8.7c4.7,0,8.7,3.9,8.7,8.7S182.7,36.9,177.8,36.9"/>
<path class="st0" d="M123.8,33.3v-12l-8.4-1.6h8.4h4.4h2V9.1h-6.4V2.5h-11.6v6.6h-6.4v10.6h6.4v16.6c0,6.3,5.2,11.5,11.5,11.5h8
	V37.1h-4.2C125.4,36.9,123.8,35.3,123.8,33.3"/>
<path class="st0" d="M150.9,33.3v-12l-8.4-1.6h8.4h4.4h2V9.1h-6.4V2.5h-11.6v6.6h-6.4v10.6h6.4v16.6c0,6.3,5.2,11.5,11.5,11.5h8
	V37.1h-4.2C152.5,36.9,150.9,35.3,150.9,33.3"/>
<path class="st0" d="M204.6,36.7c-3,0-5.4,2.4-5.4,5.4c0,3,2.4,5.4,5.4,5.4c3,0,5.4-2.4,5.4-5.4C210,39.1,207.6,36.7,204.6,36.7"/>
</svg>
